
<svg width="24" height="24" xmlns="http://www.w3.org/2000/svg" clip-rule="evenodd" fill-rule="evenodd">

    <g>
        <path fill="#c7d3e3" id="svg_1" d="m19.54,0c1.356,0 2.46,1.104 2.46,2.472l0,21.528l-2.58,-2.28l-1.452,-1.344l-1.536,-1.428l0.636,2.22l-13.608,0c-1.356,0 -2.46,-1.104 -2.46,-2.472l0,-16.224c0,-1.368 1.104,-2.472 2.46,-2.472l16.08,0zm-4.632,15.672c2.652,-0.084 3.672,-1.824 3.672,-1.824c0,-3.864 -1.728,-6.996 -1.728,-6.996c-1.728,-1.296 -3.372,-1.26 -3.372,-1.26l-0.168,0.192c2.04,0.624 2.988,1.524 2.988,1.524c-1.248,-0.684 -2.472,-1.02 -3.612,-1.152c-0.864,-0.096 -1.692,-0.072 -2.424,0.024l-0.204,0.024c-0.42,0.036 -1.44,0.192 -2.724,0.756c-0.444,0.204 -0.708,0.348 -0.708,0.348s0.996,-0.948 3.156,-1.572l-0.12,-0.144s-1.644,-0.036 -3.372,1.26c0,0 -1.728,3.132 -1.728,6.996c0,0 1.008,1.74 3.66,1.824c0,0 0.444,-0.54 0.804,-0.996c-1.524,-0.456 -2.1,-1.416 -2.1,-1.416l0.336,0.204l0.048,0.036l0.047,0.027l0.014,0.006l0.047,0.027c0.3,0.168 0.6,0.3 0.876,0.408c0.492,0.192 1.08,0.384 1.764,0.516c0.9,0.168 1.956,0.228 3.108,0.012c0.564,-0.096 1.14,-0.264 1.74,-0.516c0.42,-0.156 0.888,-0.384 1.38,-0.708c0,0 -0.6,0.984 -2.172,1.428c0.36,0.456 0.792,0.972 0.792,0.972zm-5.58,-5.604c-0.684,0 -1.224,0.6 -1.224,1.332c0,0.732 0.552,1.332 1.224,1.332c0.684,0 1.224,-0.6 1.224,-1.332c0.012,-0.732 -0.54,-1.332 -1.224,-1.332zm4.38,0c-0.684,0 -1.224,0.6 -1.224,1.332c0,0.732 0.552,1.332 1.224,1.332c0.684,0 1.224,-0.6 1.224,-1.332c0,-0.732 -0.54,-1.332 -1.224,-1.332z"/>
    </g>
</svg>